<mxfile host="app.diagrams.net" modified="2023-05-29T19:15:17.975Z" agent="Mozilla/5.0 (Windows NT 10.0; Win64; x64) AppleWebKit/537.36 (KHTML, like Gecko) Chrome/112.0.0.0 Safari/537.36" version="21.3.5" etag="P7iZIrh91AREnGks8NKI" type="github">
  <diagram name="Page-1" id="E5BPEZDzEj9JzmHespPg">
    <mxGraphModel>
      <root>
        <mxCell id="0" />
        <mxCell id="1" parent="0" />
      </root>
    </mxGraphModel>
  </diagram>
</mxfile>
